<svg width="18" height="19" viewBox="0 0 18 19" fill="none" xmlns="http://www.w3.org/2000/svg">
<g id="Icon / Google">
<path id="Shape" fill-rule="evenodd" clip-rule="evenodd" d="M17.64 9.81198C17.64 9.1738 17.5827 8.56016 17.4764 7.97107H9V11.4524H13.8436C13.635 12.5774 13.0009 13.5306 12.0477 14.1688V16.427H14.9564C16.6582 14.8602 17.64 12.5529 17.64 9.81198Z" fill="#4285F4"/>
<path id="Shape_2" fill-rule="evenodd" clip-rule="evenodd" d="M9 18.6074C11.43 18.6074 13.4673 17.8015 14.9564 16.4269L12.0477 14.1687C11.2418 14.7087 10.2109 15.0278 9 15.0278C6.65591 15.0278 4.67182 13.4447 3.96409 11.3174H0.957275V13.6492C2.43818 16.5906 5.48182 18.6074 9 18.6074Z" fill="#34A853"/>
<path id="Shape_3" fill-rule="evenodd" clip-rule="evenodd" d="M3.96409 11.3174C3.78409 10.7774 3.68182 10.2006 3.68182 9.60737C3.68182 9.01419 3.78409 8.43737 3.96409 7.89737V5.56555H0.957273C0.347727 6.78055 0 8.1551 0 9.60737C0 11.0596 0.347727 12.4342 0.957273 13.6492L3.96409 11.3174Z" fill="#FBBC05"/>
<path id="Shape_4" fill-rule="evenodd" clip-rule="evenodd" d="M9 4.18697C10.3214 4.18697 11.5077 4.64106 12.4405 5.53288L15.0218 2.95151C13.4632 1.49924 11.4259 0.607422 9 0.607422C5.48182 0.607422 2.43818 2.62424 0.957275 5.5656L3.96409 7.89742C4.67182 5.77015 6.65591 4.18697 9 4.18697Z" fill="#EA4335"/>
</g>
</svg>
